<svg width="140" height="140" viewBox="0 0 140 140" fill="none" xmlns="http://www.w3.org/2000/svg">
<rect width="140" height="140" rx="70" fill="white"/>
<mask id="mask0_277_27" style="mask-type:luminance" maskUnits="userSpaceOnUse" x="20" y="20" width="100" height="100">
<path d="M103.872 38.8612L105.134 39.6835L106.396 40.5057V43.7957L105.134 44.6179L103.872 45.4402L102.61 44.6179L101.347 43.7957V40.5057L102.61 39.6835L103.872 38.8612ZM95.1942 42.1921L96.8775 43.2887L98.5608 44.3854V48.7721L96.8775 49.8688L95.1942 50.9654L93.5108 49.8688L91.8275 48.7721V44.3854L93.5108 43.2887L95.1942 42.1921ZM94.803 32.5661L96.0652 33.3884L97.3275 34.2106V37.5006L96.0652 38.3228L94.803 39.1451L93.5407 38.3228L92.2784 37.5006V34.2106L93.5407 33.3884L94.803 32.5661ZM101.155 30.6305L101.988 31.173L102.822 31.7156V33.888L101.988 34.4306L101.155 34.9731L100.321 34.4306L99.4878 33.888V31.7156L100.321 31.173L101.155 30.6305ZM115.509 45.0872L116.342 45.6298L117.176 46.1734V48.3447L116.342 48.8873L115.509 49.4299L114.675 48.8873L113.842 48.3447V46.1734L114.675 45.6298L115.509 45.0872ZM116.71 68.7834L117.544 69.326L118.377 69.8685V72.0409L117.544 72.5835L116.71 73.1261L115.877 72.5835L115.043 72.0409V69.8685L115.877 69.326L116.71 68.7834ZM106.276 85.887L107.11 86.4296L107.943 86.9722V89.1446L107.11 89.6871L106.276 90.2297L105.443 89.6871L104.609 89.1446V86.9722L105.443 86.4296L106.276 85.887ZM111.63 76.1301L113.313 77.2268L114.996 78.3235V82.7101L113.313 83.8068L111.63 84.9035L109.946 83.8068L108.263 82.7101V78.3235L109.946 77.2268L111.63 76.1301ZM96.1144 58.6704L97.7977 59.7671L99.481 60.8637V65.2504L97.7977 66.3471L96.1144 67.4437L94.431 66.3471L92.7477 65.2504V63.6112H86.9355L75.4913 70.3409H105.226V69.2506L106.488 68.4283L107.75 67.6061L109.013 68.4283L110.275 69.2506V72.5406L109.013 73.3628L107.75 74.185L106.488 73.3628L105.226 72.5406V71.4502H96.4998L99.6834 79.6244L100.265 79.2452L101.528 80.0675L102.79 80.8897V84.1797L101.528 85.0019L100.265 85.8242L99.0031 85.0019L97.7408 84.1797V80.8897L98.8036 80.1973L95.3965 71.4491H73.9882V98.0499L77.4396 101.934H91.179V103.049L91.1462 103.043H78.4253L84.5102 109.891H98.2814V111H84.0805L83.9282 110.83L73.9882 99.642V106.779L84.7145 118.852L83.9812 119.619L73.1113 107.385L72.9678 107.001V70.564L73.2366 70.4059L86.5674 62.5669L86.8083 62.4998H92.7467V60.8606L94.4301 59.7639L96.1134 58.6672L96.1144 58.6704ZM75.1358 20L76.1619 20.6683L77.1881 21.3365V24.0096L76.1619 24.6779L75.1358 25.3461L74.1096 24.6779L73.0834 24.0096V21.3365L74.1096 20.6683L75.1358 20ZM36.128 38.8623L34.8658 39.6845L33.6035 40.5068V43.7968L34.8658 44.619L36.128 45.4412L37.3903 44.619L38.6526 43.7968V40.5068L37.3903 39.6845L36.128 38.8623ZM44.8058 42.1931L43.1225 43.2898L41.4392 44.3865V48.7731L43.1225 49.8698L44.8058 50.9665L46.4892 49.8698L48.1725 48.7731V44.3865L46.4892 43.2898L44.8058 42.1931ZM45.197 32.5672L43.9348 33.3894L42.6725 34.2116V37.5016L43.9348 38.3239L45.197 39.1461L46.4593 38.3239L47.7216 37.5016V34.2116L46.4593 33.3894L45.197 32.5672ZM38.8453 30.6315L38.0118 31.1741L37.1783 31.7166V33.889L38.0118 34.4316L38.8453 34.9742L39.6788 34.4316L40.5122 33.889V31.7166L39.6788 31.1741L38.8453 30.6315ZM24.4911 45.0882L23.6577 45.6308L22.8242 46.1744V48.3458L23.6577 48.8884L24.4911 49.4309L25.3246 48.8884L26.1581 48.3458V46.1744L25.3246 45.6308L24.4911 45.0882ZM22.5245 58.4609L21.2623 59.2831L20 60.1054V63.3954L21.2623 64.2176L22.5245 65.0399L23.7868 64.2176L25.049 63.3954V60.1054L23.7868 59.2831L22.5245 58.4609ZM23.2896 68.7845L22.4561 69.327L21.6226 69.8696V72.042L22.4561 72.5846L23.2896 73.1271L24.1231 72.5846L24.9565 72.042V69.8696L24.1231 69.327L23.2896 68.7845ZM33.724 85.8881L32.8905 86.4306L32.057 86.9732V89.1456L32.8905 89.6882L33.724 90.2308L34.5574 89.6882L35.3909 89.1456V86.9732L34.5574 86.4306L33.724 85.8881ZM28.3704 76.1312L26.6871 77.2279L25.0038 78.3245V82.7112L26.6871 83.8079L28.3704 84.9045L30.0538 83.8079L31.7371 82.7112V78.3245L30.0538 77.2279L28.3704 76.1312ZM43.8856 58.6714L42.2023 59.7681L40.519 60.8648V65.2514L42.2023 66.3481L43.8856 67.4448L45.569 66.3481L47.2523 65.2514V63.6122H53.0992L64.5434 70.342H34.7733V69.2516L33.511 68.4294L32.2488 67.6071L30.9865 68.4294L29.7242 69.2516V72.5416L30.9865 73.3638L32.2488 74.1861L33.511 73.3638L34.7733 72.5416V71.4512H43.4993L40.3157 79.6254L39.7337 79.2463L38.4714 80.0685L37.2092 80.8907V84.1807L38.4714 85.003L39.7337 85.8252L40.9959 85.003L42.2582 84.1807V80.8907L41.1954 80.1984L44.6025 71.4502H66.0465V98.0509L62.5951 101.935H48.8557V103.05L48.8884 103.044H61.6093L55.5245 109.892H41.7533V111.001H55.9542L56.1064 110.831L66.0475 99.643V106.78L55.3212 118.853L56.0544 119.62L66.9243 107.386L67.0679 107.002V70.5651L66.7991 70.4069L53.4682 62.5679L53.2273 62.5009H47.2533V60.8616L45.5699 59.765L43.8866 58.6683L43.8856 58.6714ZM64.8642 20.001L63.8381 20.6693L62.8119 21.3376V24.0106L63.8381 24.6789L64.8642 25.3472L65.8904 24.6789L66.9166 24.0106V21.3376L65.8904 20.6693L64.8642 20.001ZM70.5223 76.4402L70.5348 110.857L77.9773 119.233L77.244 120L70.0019 111.849L62.7598 120L62.0266 119.233L69.4941 110.829L69.5067 76.4402L69.4941 42.4738L66.9205 42.5021V44.1089L65.2371 45.2056L63.5538 46.3022L61.8705 45.2056L60.1871 44.1089V39.7222L61.8705 38.6255L63.5538 37.5289L65.2371 38.6255L66.9205 39.7222V41.3971H73.0795V39.7222L74.7629 38.6255L76.4462 37.5289L78.1295 38.6255L79.8129 39.7222V44.1089L78.1295 45.2056L76.4462 46.3022L74.7629 45.2056L73.0795 44.1089V42.5126L70.5348 42.4843L70.5223 76.4391V76.4402ZM69.2956 31.9827L70.0308 31.504L70.766 31.9827L72.4686 33.0919L72.5563 33.1485V36.4385L71.2941 37.2607L70.0318 38.083L68.7695 37.2607L67.5073 36.4385V33.1485L67.595 33.0919L69.2976 31.9827H69.2956ZM120 63.3964V60.1064L118.738 59.2842L117.475 58.4619L116.213 59.2842L114.951 60.1064V63.3964L116.213 64.2187L117.475 65.0409L118.738 64.2187L120 63.3964ZM37.5464 53.2153H50.7924V50.1547L53.5665 48.3479L55.8309 46.8731V36.8166L53.5665 35.3418L50.7924 33.535V26.3056L53.5665 24.4987L56.3406 22.6919L59.1147 24.4987L61.8888 26.3056V29.3662H78.1074V26.3056L80.8815 24.4987L83.6555 22.6919L86.4296 24.4987L89.2037 26.3056V33.535L86.4296 35.3418L84.1653 36.8166V46.8731L86.4296 48.3479L89.2037 50.1547V53.2153H102.45V50.1558L105.224 48.3489L107.998 46.5421L110.772 48.3489L113.546 50.1558V57.3852L110.772 59.1931L107.998 60.9999L105.224 59.1931L102.45 57.3852V54.3246H89.2037V57.3841L86.4296 59.191L83.6555 60.9978L80.8815 59.191L78.1074 57.3841V50.1547L80.8815 48.3479L83.1458 46.8731V36.8166L80.8815 35.3418L78.1074 33.535V30.4744H61.8888V33.535L59.1147 35.3418L56.8503 36.8166V46.8731L59.1147 48.3479L61.8888 50.1547V57.3841L59.1147 59.191L56.3406 60.9978L53.5665 59.191L50.7924 57.3841V54.3246H37.5464V57.3852L34.7723 59.1931L31.9982 60.9999L29.2241 59.1931L26.4501 57.3852V50.1558L29.2241 48.3489L31.9982 46.5421L34.7723 48.3489L37.5464 50.1558V53.2153Z" fill="white"/>
</mask>
<g mask="url(#mask0_277_27)">
<path d="M120 20H19.999V119.999H120V20Z" fill="url(#paint0_linear_277_27)"/>
</g>
<defs>
<linearGradient id="paint0_linear_277_27" x1="97.4065" y1="43.4595" x2="48.6482" y2="83.4159" gradientUnits="userSpaceOnUse">
<stop stop-color="#1DC3F3"/>
<stop offset="1" stop-color="#F300A6"/>
</linearGradient>
</defs>
</svg>
