<svg width="1106" height="955" viewBox="0 0 1106 955" fill="none" xmlns="http://www.w3.org/2000/svg">
<mask id="mask0_281_41" style="mask-type:luminance" maskUnits="userSpaceOnUse" x="0" y="0" width="1106" height="955">
<path d="M927.273 180.07L941.228 187.92L955.183 195.77V227.18L941.228 235.03L927.273 242.88L913.317 235.03L899.362 227.18V195.77L913.317 187.92L927.273 180.07ZM831.333 211.87L849.943 222.34L868.554 232.81V274.69L849.943 285.16L831.333 295.63L812.722 285.16L794.111 274.69V232.81L812.722 222.34L831.333 211.87ZM827.008 119.97L840.963 127.82L854.918 135.67V167.08L840.963 174.93L827.008 182.78L813.052 174.93L799.097 167.08V135.67L813.052 127.82L827.008 119.97ZM897.232 101.49L906.446 106.67L915.661 111.85V132.59L906.446 137.77L897.232 142.95L888.017 137.77L878.802 132.59V111.85L888.017 106.67L897.232 101.49ZM1055.93 239.51L1065.14 244.69L1074.36 249.88V270.61L1065.14 275.79L1055.93 280.97L1046.71 275.79L1037.5 270.61V249.88L1046.71 244.69L1055.93 239.51ZM1069.21 465.74L1078.43 470.92L1087.64 476.1V496.84L1078.43 502.02L1069.21 507.2L1060 502.02L1050.78 496.84V476.1L1060 470.92L1069.21 465.74ZM953.852 629.03L963.067 634.21L972.281 639.39V660.13L963.067 665.31L953.852 670.49L944.637 665.31L935.422 660.13V639.39L944.637 634.21L953.852 629.03ZM1013.04 535.88L1031.65 546.35L1050.26 556.82V598.7L1031.65 609.17L1013.04 619.64L994.429 609.17L975.818 598.7V556.82L994.429 546.35L1013.04 535.88ZM841.506 369.19L860.117 379.66L878.727 390.13V432.01L860.117 442.48L841.506 452.95L822.896 442.48L804.285 432.01V416.36H740.026L613.502 480.61H942.24V470.2L956.195 462.35L970.151 454.5L984.106 462.35L998.061 470.2V501.61L984.106 509.46L970.151 517.31L956.195 509.46L942.24 501.61V491.2H845.767L880.964 569.24L887.399 565.62L901.354 573.47L915.31 581.32V612.73L901.354 620.58L887.399 628.43L873.444 620.58L859.488 612.73V581.32L871.238 574.71L833.57 491.19H596.883V745.15L635.042 782.23H786.942V792.88L786.58 792.82H645.94L713.213 858.2H865.465V868.79H708.462L706.779 867.16L596.883 760.35V828.49L715.471 943.75L707.365 951.07L587.189 834.27L585.602 830.61V482.74L588.574 481.23L735.957 406.39L738.62 405.75H804.274V390.1L822.885 379.63L841.495 369.16L841.506 369.19ZM609.571 0L620.916 6.38004L632.261 12.76V38.28L620.916 44.66L609.571 51.04L598.225 44.66L586.88 38.28V12.76L598.225 6.38004L609.571 0ZM178.309 180.08L164.353 187.93L150.398 195.78V227.19L164.353 235.04L178.309 242.89L192.264 235.04L206.219 227.19V195.78L192.264 187.93L178.309 180.08ZM274.249 211.88L255.638 222.35L237.027 232.82V274.7L255.638 285.17L274.249 295.64L292.859 285.17L311.47 274.7V232.82L292.859 222.35L274.249 211.88ZM278.574 119.98L264.619 127.83L250.663 135.68V167.09L264.619 174.94L278.574 182.79L292.529 174.94L306.485 167.09V135.68L292.529 127.83L278.574 119.98ZM208.35 101.5L199.135 106.68L189.92 111.86V132.6L199.135 137.78L208.35 142.96L217.565 137.78L226.779 132.6V111.86L217.565 106.68L208.35 101.5ZM49.6533 239.52L40.4385 244.7L31.2237 249.89V270.62L40.4385 275.8L49.6533 280.98L58.868 275.8L68.0828 270.62V249.89L58.868 244.7L49.6533 239.52ZM27.9107 367.19L13.9554 375.04L0 382.89V414.3L13.9554 422.15L27.9107 430L41.866 422.15L55.8213 414.3V382.89L41.866 375.04L27.9107 367.19ZM36.3691 465.75L27.1543 470.93L17.9395 476.11V496.85L27.1543 502.03L36.3691 507.21L45.5839 502.03L54.7986 496.85V476.11L45.5839 470.93L36.3691 465.75ZM151.73 629.04L142.515 634.22L133.3 639.4V660.14L142.515 665.32L151.73 670.5L160.944 665.32L170.159 660.14V639.4L160.944 634.22L151.73 629.04ZM92.5419 535.89L73.9313 546.36L55.3207 556.83V598.71L73.9313 609.18L92.5419 619.65L111.153 609.18L129.763 598.71V556.83L111.153 546.36L92.5419 535.89ZM264.075 369.2L245.465 379.67L226.854 390.14V432.02L245.465 442.49L264.075 452.96L282.686 442.49L301.297 432.02V416.37H365.938L492.463 480.62H163.331V470.21L149.375 462.36L135.42 454.51L121.465 462.36L107.509 470.21V501.62L121.465 509.47L135.42 517.32L149.375 509.47L163.331 501.62V491.21H259.803L224.606 569.25L218.172 565.63L204.216 573.48L190.261 581.33V612.74L204.216 620.59L218.172 628.44L232.127 620.59L246.082 612.74V581.33L234.332 574.72L272.001 491.2H509.082V745.16L470.923 782.24H319.023V792.89L319.385 792.83H460.025L392.752 858.21H240.5V868.8H397.503L399.186 867.17L509.092 760.36V828.5L390.504 943.76L398.611 951.08L518.787 834.28L520.374 830.62V482.75L517.402 481.24L370.018 406.4L367.355 405.76H301.307V390.11L282.697 379.64L264.086 369.17L264.075 369.2ZM496.011 0.0100098L484.665 6.38998L473.32 12.77V38.29L484.665 44.67L496.011 51.05L507.356 44.67L518.701 38.29V12.77L507.356 6.38998L496.011 0.0100098ZM558.565 538.84L558.703 867.42L640.986 947.39L632.879 954.71L552.812 876.89L472.745 954.71L464.638 947.39L547.198 867.15L547.336 538.84L547.198 214.56L518.744 214.83V230.17L500.133 240.64L481.523 251.11L462.912 240.64L444.301 230.17V188.29L462.912 177.82L481.523 167.35L500.133 177.82L518.744 188.29V204.28H586.837V188.29L605.448 177.82L624.059 167.35L642.669 177.82L661.28 188.29V230.17L642.669 240.64L624.059 251.11L605.448 240.64L586.837 230.17V214.93L558.703 214.66L558.565 538.83V538.84ZM545.003 114.4L553.132 109.83L561.26 114.4L580.083 124.99L581.053 125.53V156.94L567.098 164.79L553.142 172.64L539.187 164.79L525.232 156.94V125.53L526.201 124.99L545.025 114.4H545.003ZM1105.58 414.31V382.9L1091.63 375.05L1077.67 367.2L1063.72 375.05L1049.76 382.9V414.31L1063.72 422.16L1077.67 430.01L1091.63 422.16L1105.58 414.31ZM193.99 317.11H340.435V287.89L371.105 270.64L396.139 256.56V160.55L371.105 146.47L340.435 129.22V60.2L371.105 42.95L401.775 25.7L432.445 42.95L463.114 60.2V89.42H642.424V60.2L673.094 42.95L703.764 25.7L734.434 42.95L765.103 60.2V129.22L734.434 146.47L709.399 160.55V256.56L734.434 270.64L765.103 287.89V317.11H911.549V287.9L942.219 270.65L972.889 253.4L1003.56 270.65L1034.23 287.9V356.92L1003.56 374.18L972.889 391.43L942.219 374.18L911.549 356.92V327.7H765.103V356.91L734.434 374.16L703.764 391.41L673.094 374.16L642.424 356.91V287.89L673.094 270.64L698.128 256.56V160.55L673.094 146.47L642.424 129.22V100H463.114V129.22L432.445 146.47L407.41 160.55V256.56L432.445 270.64L463.114 287.89V356.91L432.445 374.16L401.775 391.41L371.105 374.16L340.435 356.91V327.7H193.99V356.92L163.32 374.18L132.65 391.43L101.98 374.18L71.3106 356.92V287.9L101.98 270.65L132.65 253.4L163.32 270.65L193.99 287.9V317.11Z" fill="white"/>
</mask>
<g mask="url(#mask0_281_41)">
<path d="M1105.58 -0.0117188H-0.00976562V954.688H1105.58V-0.0117188Z" fill="url(#paint0_linear_281_41)"/>
</g>
<defs>
<linearGradient id="paint0_linear_281_41" x1="855.793" y1="223.958" x2="381.687" y2="673.875" gradientUnits="userSpaceOnUse">
<stop stop-color="white"/>
<stop offset="1" stop-color="white"/>
</linearGradient>
</defs>
</svg>
