<svg width="837" height="740" viewBox="0 0 837 740" fill="none" xmlns="http://www.w3.org/2000/svg">
<path d="M74.7774 669.002C78.7194 669.002 82.0774 669.683 84.8514 671.046C87.6741 672.36 89.8154 674.258 91.2754 676.74C92.7841 679.222 93.5384 682.239 93.5384 685.792C93.5384 687.885 93.2221 689.953 92.5894 691.997C91.9568 694.041 90.9348 695.915 89.5234 697.618C88.1608 699.273 86.3358 700.611 84.0484 701.633C81.7611 702.606 78.9871 703.093 75.7264 703.093H67.9884V722H60.1774V669.002H74.7774ZM75.7264 695.574C77.6731 695.574 79.3034 695.258 80.6174 694.625C81.9314 693.944 82.9534 693.092 83.6834 692.07C84.4621 691.048 84.9974 690.002 85.2894 688.931C85.6301 687.812 85.8004 686.814 85.8004 685.938C85.8004 684.965 85.6301 683.943 85.2894 682.872C84.9974 681.753 84.4864 680.731 83.7564 679.806C83.0264 678.833 82.0288 678.054 80.7634 677.47C79.4981 676.837 77.9164 676.521 76.0184 676.521H67.9884V695.574H75.7264ZM105.404 665.279H112.923V722H105.404V665.279ZM140.062 722.73C137.19 722.73 134.587 722.146 132.251 720.978C129.915 719.761 128.065 717.961 126.703 715.576C125.34 713.191 124.659 710.247 124.659 706.743C124.659 703.288 125.364 700.319 126.776 697.837C128.236 695.355 130.134 693.457 132.47 692.143C134.854 690.78 137.434 690.099 140.208 690.099C143.128 690.099 145.512 690.732 147.362 691.997C149.26 693.214 150.744 694.649 151.815 696.304L151.304 697.472L152.034 691.413H158.969V722H151.45V714.335L152.253 716.16C152.058 716.549 151.644 717.109 151.012 717.839C150.379 718.52 149.527 719.25 148.457 720.029C147.435 720.808 146.218 721.465 144.807 722C143.444 722.487 141.862 722.73 140.062 722.73ZM142.106 716.598C143.712 716.598 145.147 716.306 146.413 715.722C147.678 715.138 148.749 714.311 149.625 713.24C150.501 712.169 151.109 710.904 151.45 709.444V703.093C151.06 701.73 150.403 700.562 149.479 699.589C148.554 698.567 147.435 697.764 146.121 697.18C144.855 696.596 143.444 696.304 141.887 696.304C140.135 696.304 138.529 696.742 137.069 697.618C135.609 698.445 134.441 699.613 133.565 701.122C132.689 702.631 132.251 704.383 132.251 706.378C132.251 708.276 132.689 710.004 133.565 711.561C134.489 713.118 135.706 714.359 137.215 715.284C138.723 716.16 140.354 716.598 142.106 716.598ZM180.124 691.413L180.781 698.421L180.489 697.472C181.511 695.282 183.093 693.53 185.234 692.216C187.375 690.853 189.906 690.172 192.826 690.172C195.697 690.172 198.058 691.024 199.907 692.727C201.805 694.43 202.778 696.645 202.827 699.37V722H195.308V701.998C195.259 700.441 194.797 699.175 193.921 698.202C193.045 697.18 191.682 696.645 189.833 696.596C188.178 696.596 186.67 697.107 185.307 698.129C183.944 699.102 182.874 700.441 182.095 702.144C181.316 703.847 180.927 705.818 180.927 708.057V722H173.408V691.413H180.124ZM220.168 677.981H227.687V691.486H235.863V697.399H227.687V722H220.168V697.399H214.766V691.486H220.168V677.981ZM243.324 717.839C243.324 716.671 243.738 715.698 244.565 714.919C245.441 714.092 246.415 713.678 247.485 713.678C248.459 713.678 249.359 714.092 250.186 714.919C251.062 715.698 251.5 716.671 251.5 717.839C251.5 719.104 251.062 720.126 250.186 720.905C249.359 721.635 248.459 722 247.485 722C246.415 722 245.441 721.635 244.565 720.905C243.738 720.126 243.324 719.104 243.324 717.839ZM304.082 669.002C309.436 669.002 313.645 670.097 316.711 672.287C319.826 674.477 321.383 677.835 321.383 682.361C321.383 685.281 320.702 687.787 319.339 689.88C318.025 691.973 316.176 693.603 313.791 694.771C311.455 695.89 308.681 696.523 305.469 696.669L304.301 692.508C308.049 692.605 311.382 693.262 314.302 694.479C317.271 695.647 319.607 697.302 321.31 699.443C323.062 701.536 323.938 704.042 323.938 706.962C323.938 709.639 323.427 711.95 322.405 713.897C321.432 715.795 320.094 717.352 318.39 718.569C316.736 719.737 314.838 720.613 312.696 721.197C310.604 721.732 308.414 722 306.126 722H289.993V669.002H304.082ZM305.469 691.924C308.195 691.924 310.19 691.145 311.455 689.588C312.721 688.031 313.353 686.181 313.353 684.04C313.353 681.412 312.526 679.514 310.871 678.346C309.265 677.129 307.124 676.521 304.447 676.521H297.804V691.924H305.469ZM305.761 714.773C307.659 714.773 309.363 714.505 310.871 713.97C312.429 713.386 313.645 712.534 314.521 711.415C315.446 710.247 315.908 708.787 315.908 707.035C315.908 705.088 315.373 703.58 314.302 702.509C313.28 701.39 311.942 700.611 310.287 700.173C308.681 699.686 307.002 699.443 305.25 699.443H297.804V714.773H305.761ZM346.57 723.241C343.747 723.241 341.436 722.389 339.635 720.686C337.834 718.983 336.885 716.793 336.788 714.116V691.413H344.307V711.415C344.404 712.972 344.842 714.262 345.621 715.284C346.448 716.257 347.762 716.768 349.563 716.817C351.218 716.817 352.678 716.33 353.943 715.357C355.257 714.335 356.279 712.972 357.009 711.269C357.788 709.517 358.177 707.522 358.177 705.283V691.413H365.696V722H358.907L358.323 714.919L358.615 716.087C357.982 717.45 357.082 718.691 355.914 719.81C354.746 720.881 353.359 721.708 351.753 722.292C350.147 722.925 348.419 723.241 346.57 723.241ZM380.129 691.413H387.648V722H380.129V691.413ZM379.691 680.463C379.691 679.295 380.153 678.322 381.078 677.543C382.003 676.764 383 676.375 384.071 676.375C385.19 676.375 386.188 676.764 387.064 677.543C387.94 678.322 388.378 679.295 388.378 680.463C388.378 681.631 387.94 682.604 387.064 683.383C386.188 684.113 385.19 684.478 384.071 684.478C383 684.478 382.003 684.113 381.078 683.383C380.153 682.604 379.691 681.631 379.691 680.463ZM402.012 665.279H409.531V722H402.012V665.279ZM436.378 722.73C433.506 722.73 430.927 722.073 428.64 720.759C426.352 719.396 424.552 717.474 423.238 714.992C421.924 712.51 421.267 709.614 421.267 706.305C421.267 702.898 421.972 700.003 423.384 697.618C424.795 695.185 426.693 693.335 429.078 692.07C431.511 690.756 434.236 690.099 437.254 690.099C439.59 690.099 441.804 690.586 443.897 691.559C446.038 692.484 447.693 693.798 448.861 695.501L448.642 698.056V665.279H456.088V722H448.569V714.773L449.372 716.744C447.863 718.447 446.014 719.883 443.824 721.051C441.634 722.17 439.152 722.73 436.378 722.73ZM438.714 716.379C440.417 716.379 441.926 716.087 443.24 715.503C444.554 714.919 445.673 714.092 446.598 713.021C447.522 711.902 448.179 710.612 448.569 709.152V703.02C448.228 701.657 447.571 700.465 446.598 699.443C445.673 698.372 444.529 697.545 443.167 696.961C441.804 696.377 440.32 696.085 438.714 696.085C436.913 696.085 435.258 696.523 433.75 697.399C432.29 698.226 431.097 699.394 430.173 700.903C429.297 702.412 428.859 704.164 428.859 706.159C428.859 708.057 429.297 709.785 430.173 711.342C431.097 712.899 432.314 714.14 433.823 715.065C435.331 715.941 436.962 716.379 438.714 716.379ZM466.938 717.839C466.938 716.671 467.352 715.698 468.179 714.919C469.055 714.092 470.028 713.678 471.099 713.678C472.072 713.678 472.973 714.092 473.8 714.919C474.676 715.698 475.114 716.671 475.114 717.839C475.114 719.104 474.676 720.126 473.8 720.905C472.973 721.635 472.072 722 471.099 722C470.028 722 469.055 721.635 468.179 720.905C467.352 720.126 466.938 719.104 466.938 717.839ZM527.696 669.002C533.05 669.002 537.259 670.097 540.325 672.287C543.44 674.477 544.997 677.835 544.997 682.361C544.997 685.281 544.316 687.787 542.953 689.88C541.639 691.973 539.79 693.603 537.405 694.771C535.069 695.89 532.295 696.523 529.083 696.669L527.915 692.508C531.663 692.605 534.996 693.262 537.916 694.479C540.885 695.647 543.221 697.302 544.924 699.443C546.676 701.536 547.552 704.042 547.552 706.962C547.552 709.639 547.041 711.95 546.019 713.897C545.046 715.795 543.708 717.352 542.004 718.569C540.35 719.737 538.452 720.613 536.31 721.197C534.218 721.732 532.028 722 529.74 722H513.607V669.002H527.696ZM529.083 691.924C531.809 691.924 533.804 691.145 535.069 689.588C536.335 688.031 536.967 686.181 536.967 684.04C536.967 681.412 536.14 679.514 534.485 678.346C532.879 677.129 530.738 676.521 528.061 676.521H521.418V691.924H529.083ZM529.375 714.773C531.273 714.773 532.977 714.505 534.485 713.97C536.043 713.386 537.259 712.534 538.135 711.415C539.06 710.247 539.522 708.787 539.522 707.035C539.522 705.088 538.987 703.58 537.916 702.509C536.894 701.39 535.556 700.611 533.901 700.173C532.295 699.686 530.616 699.443 528.864 699.443H521.418V714.773H529.375ZM560.402 665.279H567.921V722H560.402V665.279ZM579.657 706.378C579.657 703.312 580.387 700.562 581.847 698.129C583.307 695.647 585.326 693.7 587.906 692.289C590.485 690.878 593.429 690.172 596.739 690.172C600.097 690.172 603.041 690.878 605.572 692.289C608.102 693.7 610.049 695.647 611.412 698.129C612.823 700.562 613.529 703.312 613.529 706.378C613.529 709.444 612.823 712.218 611.412 714.7C610.049 717.182 608.102 719.153 605.572 720.613C603.041 722.024 600.072 722.73 596.666 722.73C593.405 722.73 590.485 722.073 587.906 720.759C585.375 719.445 583.355 717.571 581.847 715.138C580.387 712.656 579.657 709.736 579.657 706.378ZM587.249 706.451C587.249 708.349 587.662 710.077 588.49 711.634C589.317 713.143 590.436 714.359 591.848 715.284C593.259 716.16 594.841 716.598 596.593 716.598C598.393 716.598 599.999 716.16 601.411 715.284C602.822 714.359 603.917 713.143 604.696 711.634C605.523 710.077 605.937 708.349 605.937 706.451C605.937 704.553 605.523 702.85 604.696 701.341C603.917 699.832 602.822 698.616 601.411 697.691C599.999 696.766 598.393 696.304 596.593 696.304C594.792 696.304 593.186 696.766 591.775 697.691C590.363 698.616 589.244 699.857 588.417 701.414C587.638 702.923 587.249 704.602 587.249 706.451ZM622.713 706.378C622.713 703.312 623.443 700.562 624.903 698.129C626.363 695.647 628.382 693.7 630.962 692.289C633.541 690.878 636.485 690.172 639.795 690.172C643.153 690.172 646.097 690.878 648.628 692.289C651.158 693.7 653.105 695.647 654.468 698.129C655.879 700.562 656.585 703.312 656.585 706.378C656.585 709.444 655.879 712.218 654.468 714.7C653.105 717.182 651.158 719.153 648.628 720.613C646.097 722.024 643.128 722.73 639.722 722.73C636.461 722.73 633.541 722.073 630.962 720.759C628.431 719.445 626.411 717.571 624.903 715.138C623.443 712.656 622.713 709.736 622.713 706.378ZM630.305 706.451C630.305 708.349 630.718 710.077 631.546 711.634C632.373 713.143 633.492 714.359 634.904 715.284C636.315 716.16 637.897 716.598 639.649 716.598C641.449 716.598 643.055 716.16 644.467 715.284C645.878 714.359 646.973 713.143 647.752 711.634C648.579 710.077 648.993 708.349 648.993 706.451C648.993 704.553 648.579 702.85 647.752 701.341C646.973 699.832 645.878 698.616 644.467 697.691C643.055 696.766 641.449 696.304 639.649 696.304C637.848 696.304 636.242 696.766 634.831 697.691C633.419 698.616 632.3 699.857 631.473 701.414C630.694 702.923 630.305 704.602 630.305 706.451ZM675.112 691.413L675.769 697.983L675.477 697.472C676.645 695.185 678.251 693.408 680.295 692.143C682.339 690.829 684.7 690.172 687.376 690.172C689.031 690.172 690.515 690.44 691.829 690.975C693.192 691.51 694.311 692.265 695.187 693.238C696.063 694.211 696.623 695.428 696.866 696.888L696.501 697.107C697.718 694.966 699.324 693.287 701.319 692.07C703.363 690.805 705.529 690.172 707.816 690.172C710.785 690.172 713.145 691.024 714.897 692.727C716.698 694.43 717.623 696.62 717.671 699.297V722H710.225V702.144C710.177 700.635 709.812 699.37 709.13 698.348C708.498 697.326 707.354 696.766 705.699 696.669C703.947 696.669 702.39 697.204 701.027 698.275C699.713 699.346 698.691 700.733 697.961 702.436C697.231 704.139 696.842 705.964 696.793 707.911V722H689.274V702.144C689.226 700.635 688.861 699.37 688.179 698.348C687.498 697.326 686.306 696.766 684.602 696.669C682.85 696.669 681.317 697.204 680.003 698.275C678.689 699.346 677.667 700.757 676.937 702.509C676.256 704.212 675.915 706.013 675.915 707.911V722H668.396V691.413H675.112ZM728.549 717.839C728.549 716.671 728.963 715.698 729.79 714.919C730.666 714.092 731.639 713.678 732.71 713.678C733.683 713.678 734.584 714.092 735.411 714.919C736.287 715.698 736.725 716.671 736.725 717.839C736.725 719.104 736.287 720.126 735.411 720.905C734.584 721.635 733.683 722 732.71 722C731.639 722 730.666 721.635 729.79 720.905C728.963 720.126 728.549 719.104 728.549 717.839Z" fill="white"/>
<mask id="mask0_212_27" style="mask-type:luminance" maskUnits="userSpaceOnUse" x="156" y="0" width="524" height="451">
<path d="M595.029 85.0641L601.621 88.7724L608.214 92.4807V107.319L601.621 111.027L595.029 114.735L588.437 111.027L581.844 107.319V92.4807L588.437 88.7724L595.029 85.0641ZM549.707 100.086L558.499 105.032L567.291 109.978V129.762L558.499 134.708L549.707 139.654L540.916 134.708L532.124 129.762V109.978L540.916 105.032L549.707 100.086ZM547.664 56.6732L554.257 60.3815L560.849 64.0898V78.9277L554.257 82.636L547.664 86.3443L541.072 82.636L534.479 78.9277V64.0898L541.072 60.3815L547.664 56.6732ZM580.838 47.9434L585.191 50.3904L589.544 52.8374V62.6348L585.191 65.0818L580.838 67.5288L576.485 65.0818L572.132 62.6348V52.8374L576.485 50.3904L580.838 47.9434ZM655.805 113.143L660.158 115.59L664.511 118.042V127.835L660.158 130.282L655.805 132.729L651.452 130.282L647.099 127.835V118.042L651.452 115.59L655.805 113.143ZM662.081 220.013L666.434 222.46L670.787 224.907V234.705L666.434 237.152L662.081 239.599L657.728 237.152L653.375 234.705V224.907L657.728 222.46L662.081 220.013ZM607.585 297.15L611.938 299.597L616.291 302.044V311.842L611.938 314.289L607.585 316.736L603.232 314.289L598.879 311.842V302.044L603.232 299.597L607.585 297.15ZM635.545 253.147L644.336 258.093L653.128 263.039V282.823L644.336 287.769L635.545 292.715L626.753 287.769L617.962 282.823V263.039L626.753 258.093L635.545 253.147ZM554.513 174.403L563.305 179.349L572.096 184.295V204.079L563.305 209.025L554.513 213.971L545.722 209.025L536.93 204.079V196.686H506.575L446.805 227.038H602.1V222.12L608.692 218.412L615.284 214.703L621.877 218.412L628.469 222.12V236.958L621.877 240.666L615.284 244.375L608.692 240.666L602.1 236.958V232.04H556.526L573.153 268.906L576.193 267.196L582.785 270.904L589.378 274.612V289.45L582.785 293.159L576.193 296.867L569.6 293.159L563.008 289.45V274.612L568.559 271.49L550.764 232.036H438.955V352.005L456.981 369.521H528.737V374.552L528.566 374.524H462.129L493.908 405.409H565.831V410.412H491.664L490.869 409.642L438.955 359.185V391.374L494.975 445.823L491.146 449.28L434.375 394.105L433.625 392.376V228.044L435.029 227.331L504.652 191.977L505.911 191.674H536.925V184.281L545.717 179.335L554.508 174.389L554.513 174.403ZM444.948 0L450.308 3.0139L455.667 6.02775V18.0833L450.308 21.0972L444.948 24.111L439.589 21.0972L434.229 18.0833V6.02775L439.589 3.0139L444.948 0ZM241.222 85.0688L234.63 88.7772L228.037 92.4854V107.323L234.63 111.032L241.222 114.74L247.815 111.032L254.407 107.323V92.4854L247.815 88.7772L241.222 85.0688ZM286.544 100.091L277.752 105.037L268.961 109.983V129.767L277.752 134.713L286.544 139.659L295.336 134.713L304.127 129.767V109.983L295.336 105.037L286.544 100.091ZM288.587 56.6779L281.995 60.3862L275.402 64.0945V78.9324L281.995 82.6408L288.587 86.349L295.18 82.6408L301.772 78.9324V64.0945L295.18 60.3862L288.587 56.6779ZM255.414 47.9481L251.061 50.3951L246.708 52.8421V62.6395L251.061 65.0865L255.414 67.5336L259.767 65.0865L264.12 62.6395V52.8421L259.767 50.3951L255.414 47.9481ZM180.446 113.148L176.093 115.595L171.74 118.047V127.839L176.093 130.286L180.446 132.733L184.799 130.286L189.152 127.839V118.047L184.799 115.595L180.446 113.148ZM170.175 173.459L163.583 177.167L156.99 180.875V195.713L163.583 199.421L170.175 203.13L176.768 199.421L183.36 195.713V180.875L176.768 177.167L170.175 173.459ZM174.171 220.018L169.818 222.465L165.465 224.912V234.709L169.818 237.156L174.171 239.603L178.524 237.156L182.877 234.709V224.912L178.524 222.465L174.171 220.018ZM228.667 297.155L224.313 299.602L219.96 302.049V311.847L224.313 314.294L228.667 316.741L233.02 314.294L237.373 311.847V302.049L233.02 299.602L228.667 297.155ZM200.707 253.152L191.915 258.098L183.123 263.044V282.827L191.915 287.773L200.707 292.719L209.498 287.773L218.29 282.827V263.044L209.498 258.098L200.707 253.152ZM281.738 174.408L272.946 179.354L264.155 184.3V204.084L272.946 209.03L281.738 213.976L290.53 209.03L299.321 204.084V196.691H329.858L389.627 227.042H234.147V222.125L227.554 218.416L220.962 214.708L214.369 218.416L207.777 222.125V236.963L214.369 240.671L220.962 244.379L227.554 240.671L234.147 236.963V232.045H279.72L263.093 268.911L260.053 267.201L253.461 270.909L246.869 274.617V289.455L253.461 293.163L260.053 296.872L266.646 293.163L273.238 289.455V274.617L267.688 271.495L285.482 232.04H397.478V352.01L379.452 369.526H307.695V374.557L307.866 374.529H374.304L342.524 405.414H270.601V410.417H344.769L345.564 409.647L397.483 359.19V391.379L341.462 445.827L345.292 449.285L402.062 394.11L402.812 392.381V228.049L401.408 227.335L331.785 191.981L330.527 191.679H299.326V184.286L290.535 179.34L281.743 174.394L281.738 174.408ZM391.303 0.00472856L385.944 3.01859L380.584 6.03248V18.088L385.944 21.1019L391.303 24.1158L396.663 21.1019L402.022 18.088V6.03248L396.663 3.01859L391.303 0.00472856ZM420.853 254.545L420.919 409.765L459.789 447.542L455.959 451L418.136 414.238L380.312 451L376.483 447.542L415.484 409.637L415.549 254.545L415.484 101.357L402.042 101.485V108.731L393.251 113.677L384.459 118.623L375.667 113.677L366.876 108.731V88.9472L375.667 84.0012L384.459 79.0553L393.251 84.0012L402.042 88.9472V96.5008H434.209V88.9472L443.001 84.0012L451.792 79.0553L460.584 84.0012L469.375 88.9472V108.731L460.584 113.677L451.792 118.623L443.001 113.677L434.209 108.731V101.532L420.919 101.404L420.853 254.54V254.545ZM414.447 54.042L418.287 51.8831L422.126 54.042L431.019 59.0446L431.477 59.2997V74.1376L424.884 77.8459L418.292 81.5542L411.699 77.8459L405.107 74.1376V59.2997L405.565 59.0446L414.457 54.042H414.447ZM679.261 195.718V180.88L672.669 177.172L666.076 173.463L659.484 177.172L652.891 180.88V195.718L659.484 199.426L666.076 203.134L672.669 199.426L679.261 195.718ZM248.63 149.801H317.81V135.998L332.298 127.849L344.124 121.198V75.843L332.298 69.1917L317.81 61.0429V28.4382L332.298 20.2893L346.787 12.1405L361.275 20.2893L375.763 28.4382V42.2415H460.468V28.4382L474.956 20.2893L489.445 12.1405L503.933 20.2893L518.421 28.4382V61.0429L503.933 69.1917L492.107 75.843V121.198L503.933 127.849L518.421 135.998V149.801H587.601V136.002L602.089 127.854L616.578 119.705L631.066 127.854L645.554 136.002V168.607L631.066 176.761L616.578 184.91L602.089 176.761L587.601 168.607V154.804H518.421V168.602L503.933 176.751L489.445 184.9L474.956 176.751L460.468 168.602V135.998L474.956 127.849L486.782 121.198V75.843L474.956 69.1917L460.468 61.0429V47.2395H375.763V61.0429L361.275 69.1917L349.449 75.843V121.198L361.275 127.849L375.763 135.998V168.602L361.275 176.751L346.787 184.9L332.298 176.751L317.81 168.602V154.804H248.63V168.607L234.142 176.761L219.653 184.91L205.165 176.761L190.677 168.607V136.002L205.165 127.854L219.653 119.705L234.142 127.854L248.63 136.002V149.801Z" fill="white"/>
</mask>
<g mask="url(#mask0_212_27)">
<path d="M679.261 -0.0078125H156.985V450.987H679.261V-0.0078125Z" fill="url(#paint0_linear_212_27)"/>
</g>
<path d="M11.1 619V511H27V619H11.1ZM23.7 562.9L77.25 511H99L43.65 562.9H23.7ZM79.65 619L23.4 562.9H43.65L102 619H79.65ZM110.122 619L150.772 511H164.572L125.722 619H110.122ZM193.672 619L154.822 511H169.372L210.172 619H193.672ZM130.672 575.95H188.572V589.15H130.672V575.95ZM226.139 619V511H242.039V619H226.139ZM233.939 619V605.95H296.339V619H233.939ZM314.469 619V511H360.219C368.019 511 374.669 512.3 380.169 514.9C385.669 517.5 389.869 521.2 392.769 526C395.769 530.8 397.269 536.5 397.269 543.1C397.269 549.8 395.769 555.6 392.769 560.5C389.869 565.3 385.619 569.05 380.019 571.75C374.519 574.45 367.919 575.8 360.219 575.8H326.619V562.6H359.469C366.569 562.6 371.969 560.9 375.669 557.5C379.469 554.1 381.369 549.35 381.369 543.25C381.369 537.05 379.519 532.3 375.819 529C372.119 525.7 366.669 524.05 359.469 524.05H330.369V619H314.469ZM440.127 619V524.05H403.677V511H492.477V524.05H456.027V619H440.127ZM505.921 619V511H548.521C556.321 511 562.971 512.3 568.471 514.9C573.971 517.4 578.221 520.95 581.221 525.55C584.221 530.05 585.721 535.4 585.721 541.6C585.721 547.8 584.221 553.2 581.221 557.8C578.221 562.4 573.971 566 568.471 568.6C562.971 571.2 556.321 572.5 548.521 572.5H517.921V559.6H548.071C555.271 559.6 560.721 558.05 564.421 554.95C568.221 551.75 570.121 547.35 570.121 541.75C570.121 536.15 568.271 531.8 564.571 528.7C560.871 525.6 555.371 524.05 548.071 524.05H521.821V619H505.921ZM568.321 619L515.671 564.55H535.021L591.121 619H568.321ZM605.094 619V511H620.994V619H605.094ZM612.894 619V605.95H680.094V619H612.894ZM612.894 569.65V556.6H674.694V569.65H612.894ZM612.894 524.05V511H678.744V524.05H612.894ZM700.163 619V511H716.063V619H700.163ZM707.963 619V605.95H775.163V619H707.963ZM707.963 569.65V556.6H769.763V569.65H707.963ZM707.963 524.05V511H773.812V524.05H707.963Z" fill="white"/>
<defs>
<linearGradient id="paint0_linear_212_27" x1="561.262" y1="105.794" x2="337.297" y2="318.333" gradientUnits="userSpaceOnUse">
<stop stop-color="#1DC3F3"/>
<stop offset="1" stop-color="#F300A6"/>
</linearGradient>
</defs>
</svg>
